<svg xmlns="http://www.w3.org/2000/svg" width="1440" height="1161" viewBox="0 0 1440 1161"><rect width="1440" height="1161" fill="#f5f7fa"/><rect x="0" y="0" width="1440" height="1160.765625" rx="0" fill="rgb(245, 247, 250)" stroke="none" stroke-width="0"/><rect x="0" y="0" width="1440" height="28" rx="0" fill="rgb(234, 240, 246)" stroke="none" stroke-width="0"/><text x="574.25" y="19.02" font-family="sans-serif" font-size="11px" font-weight="400" fill="rgb(65, 85, 111)">開発用デモ環境 </text><text x="671.9375" y="19.02" font-family="sans-serif" font-size="11px" font-weight="400" fill="rgb(65, 85, 111)">実在する個人情報は入力しないでください</text><rect x="0" y="28" width="1440" height="88" rx="0" fill="rgb(255, 255, 255)" stroke="none" stroke-width="0"/><rect x="38" y="50" width="43" height="43" rx="9" fill="rgb(22, 60, 102)" stroke="none" stroke-width="0"/><svg x="46" y="58" width="27" height="27" viewBox="0 0 24 24" fill="none" stroke="rgb(255, 255, 255)" stroke-width="1.7" stroke-linecap="round" stroke-linejoin="round"><path d="M4 21V3h12v18M16 9h4v12M2 21h20M8 7h4M8 11h4M8 15h4M8 21v-3h4v3"></path></svg><text x="94" y="73.15" font-family="sans-serif" font-size="20px" font-weight="700" fill="rgb(22, 60, 102)">行政手続きポータル</text><text x="94" y="92.95" font-family="sans-serif" font-size="10px" font-weight="400" fill="rgb(113, 129, 151)">オンライン申請サービス</text><rect x="1234" y="52.5" width="38" height="38" rx="19" fill="rgb(239, 243, 248)" stroke="none" stroke-width="0"/><svg x="1243" y="61.5" width="20" height="20" viewBox="0 0 24 24" fill="none" stroke="rgb(22, 60, 102)" stroke-width="1.7" stroke-linecap="round" stroke-linejoin="round"><circle cx="12" cy="8" r="4"></circle><path d="M4 21v-2a8 8 0 0 1 16 0v2"></path></svg><text x="1284" y="63.45" font-family="sans-serif" font-size="10px" font-weight="400" fill="rgb(113, 129, 151)">デモ利用者の切り替え</text><rect x="1284" y="66.75" width="118" height="26" rx="6" fill="rgb(255, 255, 255)" stroke="none" stroke-width="0"/><text x="1284" y="84.65" font-family="sans-serif" font-size="14px" fill="rgb(41, 62, 86)">山田 太郎 様</text><rect x="0" y="116" width="238" height="1044.765625" rx="0" fill="rgb(255, 255, 255)" stroke="none" stroke-width="0"/><text x="32" y="162.02" font-family="sans-serif" font-size="11px" font-weight="400" fill="rgb(118, 132, 151)">マイページ</text><rect x="18" y="180.140625" width="201" height="49.09375" rx="6" fill="rgb(234, 241, 250)" stroke="none" stroke-width="0"/><svg x="33" y="194.6875" width="20" height="20" viewBox="0 0 24 24" fill="none" stroke="rgb(34, 86, 142)" stroke-width="1.7" stroke-linecap="round" stroke-linejoin="round"><path d="M16 21v-2a4 4 0 0 0-4-4H6a4 4 0 0 0-4 4v2"></path><circle cx="9" cy="7" r="4"></circle><path d="M22 21v-2a4 4 0 0 0-3-3.87M16 3.13a4 4 0 0 1 0 7.75"></path></svg><text x="65" y="211.620625" font-family="sans-serif" font-size="14px" font-weight="600" fill="rgb(34, 86, 142)">申請者管理</text><rect x="183.890625" y="195.609375" width="20.109375" height="18.140625" rx="4" fill="rgb(255, 255, 255)" stroke="none" stroke-width="0"/><text x="190.890625" y="209.629375" font-family="sans-serif" font-size="11px" font-weight="600" fill="rgb(34, 86, 142)">3</text><rect x="30" y="265.234375" width="177" height="137.671875" rx="0" fill="none" stroke="rgb(224, 230, 238)" stroke-width="1"/><svg x="30" y="292.234375" width="23" height="23" viewBox="0 0 24 24" fill="none" stroke="rgb(106, 131, 160)" stroke-width="1.7" stroke-linecap="round" stroke-linejoin="round"><path d="m12 3 8 3v6c0 5-8 9-8 9s-8-4-8-9V6Z"></path><path d="m8 12 3 3 5-6"></path></svg><text x="30" y="346.168125" font-family="sans-serif" font-size="12px" font-weight="700" fill="rgb(83, 105, 128)">申請の準備を、ここから。</text><text x="30" y="376.145" font-family="sans-serif" font-size="11px" font-weight="400" fill="rgb(113, 129, 151)">ご自身または代表する法人の情報を登</text><text x="30" y="397.035625" font-family="sans-serif" font-size="11px" font-weight="400" fill="rgb(113, 129, 151)">録して、手続きをスムーズに。</text><svg x="33" y="455.90625" width="20" height="20" viewBox="0 0 24 24" fill="none" stroke="rgb(113, 129, 151)" stroke-width="1.7" stroke-linecap="round" stroke-linejoin="round"><circle cx="12" cy="12" r="9"></circle><path d="M9 9a3 3 0 0 1 6 0c0 2-3 2-3 4M12 17h.01"></path></svg><text x="65" y="470.84" font-family="sans-serif" font-size="12px" font-weight="400" fill="rgb(113, 129, 151)">ご利用ガイド</text><text x="32" y="1106.145625" font-family="sans-serif" font-size="9px" font-weight="400" fill="rgb(139, 151, 166)">LOCAL DEMONSTRATION</text><text x="32" y="1124.145625" font-family="sans-serif" font-size="9px" font-weight="400" fill="rgb(139, 151, 166)">申請者管理サンプル v1.0</text><text x="280" y="157.02" font-family="sans-serif" font-size="11px" font-weight="400" fill="rgb(122, 135, 151)">マイページ</text><text x="331.1875" y="157.02" font-family="sans-serif" font-size="11px" font-weight="400" fill="rgb(160, 172, 184)">›</text><text x="344.671875" y="157.02" font-family="sans-serif" font-size="11px" font-weight="400" fill="rgb(122, 135, 151)">申請者管理</text><text x="280" y="199.520625" font-family="sans-serif" font-size="9px" font-weight="700" fill="rgb(130, 147, 168)">APPLICANT MANAGEMENT</text><text x="280" y="241.944375" font-family="sans-serif" font-size="28px" font-weight="700" fill="rgb(41, 62, 86)">申請者管理</text><text x="280" y="272.824375" font-family="sans-serif" font-size="12px" font-weight="400" fill="rgb(113, 129, 151)">手続きに使用する申請者情報を登録・管理できます。</text><rect x="1228.9375" y="210.953125" width="169.0625" height="44" rx="6" fill="rgb(40, 94, 153)" stroke="none" stroke-width="0"/><svg x="1248.9375" y="222.953125" width="20" height="20" viewBox="0 0 24 24" fill="none" stroke="rgb(255, 255, 255)" stroke-width="1.7" stroke-linecap="round" stroke-linejoin="round"><path d="M12 5v14M5 12h14"></path></svg><text x="1276.9375" y="238.894375" font-family="sans-serif" font-size="13px" font-weight="600" fill="rgb(255, 255, 255)">申請者を新規登録</text><rect x="280" y="305.78125" width="456.421875" height="102.78125" rx="8" fill="rgb(255, 255, 255)" stroke="rgb(224, 230, 238)" stroke-width="1"/><rect x="303" y="334.671875" width="45" height="45" rx="9" fill="rgb(234, 241, 251)" stroke="none" stroke-width="0"/><svg x="313.5" y="345.171875" width="24" height="24" viewBox="0 0 24 24" fill="none" stroke="rgb(50, 98, 156)" stroke-width="1.7" stroke-linecap="round" stroke-linejoin="round"><path d="M16 21v-2a4 4 0 0 0-4-4H6a4 4 0 0 0-4 4v2"></path><circle cx="9" cy="7" r="4"></circle><path d="M22 21v-2a4 4 0 0 0-3-3.87M16 3.13a4 4 0 0 1 0 7.75"></path></svg><text x="365" y="344.80125" font-family="sans-serif" font-size="11px" font-weight="400" fill="rgb(113, 129, 151)">登録済みの申請者</text><text x="365" y="381.655" font-family="sans-serif" font-size="29px" font-weight="650" fill="rgb(41, 62, 86)">3</text><text x="390.6875" y="380.895" font-family="sans-serif" font-size="11px" font-weight="400" fill="rgb(113, 129, 151)">件</text><text x="624.59375" y="384.09875" font-family="sans-serif" font-size="9px" font-weight="400" fill="rgb(113, 129, 151)">あなたが管理する申請者</text><rect x="752.421875" y="305.78125" width="314.78125" height="102.78125" rx="8" fill="rgb(255, 255, 255)" stroke="rgb(224, 230, 238)" stroke-width="1"/><rect x="775.421875" y="334.671875" width="45" height="45" rx="9" fill="rgb(239, 244, 248)" stroke="none" stroke-width="0"/><svg x="785.921875" y="345.171875" width="24" height="24" viewBox="0 0 24 24" fill="none" stroke="rgb(98, 123, 147)" stroke-width="1.7" stroke-linecap="round" stroke-linejoin="round"><circle cx="12" cy="8" r="4"></circle><path d="M4 21v-2a8 8 0 0 1 16 0v2"></path></svg><text x="837.421875" y="344.80125" font-family="sans-serif" font-size="11px" font-weight="400" fill="rgb(113, 129, 151)">個人</text><text x="837.421875" y="381.655" font-family="sans-serif" font-size="29px" font-weight="650" fill="rgb(41, 62, 86)">1</text><text x="858.671875" y="380.895" font-family="sans-serif" font-size="11px" font-weight="400" fill="rgb(113, 129, 151)">件</text><rect x="1083.203125" y="305.78125" width="314.78125" height="102.78125" rx="8" fill="rgb(255, 255, 255)" stroke="rgb(224, 230, 238)" stroke-width="1"/><rect x="1106.203125" y="334.671875" width="45" height="45" rx="9" fill="rgb(241, 237, 249)" stroke="none" stroke-width="0"/><svg x="1116.703125" y="345.171875" width="24" height="24" viewBox="0 0 24 24" fill="none" stroke="rgb(128, 100, 166)" stroke-width="1.7" stroke-linecap="round" stroke-linejoin="round"><path d="M4 21V3h12v18M16 9h4v12M2 21h20M8 7h4M8 11h4M8 15h4M8 21v-3h4v3"></path></svg><text x="1168.203125" y="344.80125" font-family="sans-serif" font-size="11px" font-weight="400" fill="rgb(113, 129, 151)">法人</text><text x="1168.203125" y="381.655" font-family="sans-serif" font-size="29px" font-weight="650" fill="rgb(41, 62, 86)">2</text><text x="1193.890625" y="380.895" font-family="sans-serif" font-size="11px" font-weight="400" fill="rgb(113, 129, 151)">件</text><rect x="280" y="435.5625" width="1118" height="493.609375" rx="9" fill="rgb(255, 255, 255)" stroke="rgb(224, 230, 238)" stroke-width="1"/><text x="306" y="482.5025" font-family="sans-serif" font-size="17px" font-weight="700" fill="rgb(41, 62, 86)">申請者一覧</text><rect x="403.125" y="464.515625" width="22.546875" height="20.140625" rx="5" fill="rgb(237, 242, 247)" stroke="none" stroke-width="0"/><text x="411.125" y="479.535625" font-family="sans-serif" font-size="11px" font-weight="700" fill="rgb(108, 128, 152)">3</text><text x="1227.921875" y="479.528125" font-family="sans-serif" font-size="10px" font-weight="400" fill="rgb(113, 129, 151)">登録情報はご本人のみ確認できます</text><svg x="318" y="516.671875" width="17" height="20" viewBox="0 0 24 24" fill="none" stroke="rgb(139, 153, 170)" stroke-width="1.7" stroke-linecap="round" stroke-linejoin="round"><circle cx="10" cy="10" r="7"></circle><path d="m15 15 6 6"></path></svg><rect x="306" y="506.609375" width="811" height="40.140625" rx="6" fill="rgb(255, 255, 255)" stroke="rgb(203, 212, 223)" stroke-width="1"/><text x="344" y="530.5296875" font-family="sans-serif" font-size="11px" fill="#8592a2">氏名・法人名・法人番号などで検索</text><rect x="1129" y="506.609375" width="104" height="40.140625" rx="6" fill="rgb(255, 255, 255)" stroke="rgb(203, 212, 223)" stroke-width="1"/><text x="1141" y="530.5296875" font-family="sans-serif" font-size="11px" fill="rgb(41, 62, 86)">すべての区分</text><rect x="1245" y="506.609375" width="127" height="40.140625" rx="6" fill="rgb(255, 255, 255)" stroke="rgb(203, 212, 223)" stroke-width="1"/><text x="1257" y="530.5296875" font-family="sans-serif" font-size="11px" fill="rgb(41, 62, 86)">更新日が新しい順</text><rect x="281" y="569.25" width="368.625" height="41.5" rx="0" fill="rgb(246, 248, 251)" stroke="rgb(224, 230, 238)" stroke-width="1"/><text x="305" y="594.95" font-family="sans-serif" font-size="10px" font-weight="600" fill="rgb(98, 115, 137)">申請者名</text><rect x="649.625" y="569.25" width="168.796875" height="41.5" rx="0" fill="rgb(246, 248, 251)" stroke="rgb(224, 230, 238)" stroke-width="1"/><text x="673.625" y="594.95" font-family="sans-serif" font-size="10px" font-weight="600" fill="rgb(98, 115, 137)">区分</text><rect x="818.421875" y="569.25" width="216.328125" height="41.5" rx="0" fill="rgb(246, 248, 251)" stroke="rgb(224, 230, 238)" stroke-width="1"/><text x="842.421875" y="594.95" font-family="sans-serif" font-size="10px" font-weight="600" fill="rgb(98, 115, 137)">住所</text><rect x="1034.75" y="569.25" width="170.46875" height="41.5" rx="0" fill="rgb(246, 248, 251)" stroke="rgb(224, 230, 238)" stroke-width="1"/><text x="1058.75" y="594.95" font-family="sans-serif" font-size="10px" font-weight="600" fill="rgb(98, 115, 137)">更新日</text><rect x="1205.21875" y="569.25" width="191.78125" height="41.5" rx="0" fill="rgb(246, 248, 251)" stroke="rgb(224, 230, 238)" stroke-width="1"/><text x="1228.21875" y="602.2" font-family="sans-serif" font-size="10px" font-weight="600" fill="rgb(98, 115, 137)">操作</text><rect x="305" y="635.0625" width="36" height="36" rx="7" fill="rgb(242, 239, 249)" stroke="none" stroke-width="0"/><svg x="313" y="643.0625" width="20" height="20" viewBox="0 0 24 24" fill="none" stroke="rgb(130, 112, 152)" stroke-width="1.7" stroke-linecap="round" stroke-linejoin="round"><path d="M4 21V3h12v18M16 9h4v12M2 21h20M8 7h4M8 11h4M8 15h4M8 21v-3h4v3"></path></svg><text x="353" y="648.09" font-family="sans-serif" font-size="12px" font-weight="650" fill="rgb(45, 70, 102)">一般社団法人 まちづくりの輪</text><text x="353" y="669.426875" font-family="sans-serif" font-size="9px" font-weight="400" fill="rgb(131, 145, 162)">法人番号 2345678901234</text><rect x="673.625" y="641.296875" width="55" height="22.5" rx="4" fill="rgb(241, 237, 248)" stroke="none" stroke-width="0"/><svg x="682.625" y="646.046875" width="13" height="13" viewBox="0 0 24 24" fill="none" stroke="rgb(121, 100, 147)" stroke-width="1.7" stroke-linecap="round" stroke-linejoin="round"><path d="M4 21V3h12v18M16 9h4v12M2 21h20M8 7h4M8 11h4M8 15h4M8 21v-3h4v3"></path></svg><text x="699.625" y="657.496875" font-family="sans-serif" font-size="10px" font-weight="400" fill="rgb(121, 100, 147)">法人</text><text x="842.421875" y="648.261875" font-family="sans-serif" font-size="12px" font-weight="400" fill="rgb(41, 62, 86)">東京都</text><text x="878.421875" y="648.261875" font-family="sans-serif" font-size="12px" font-weight="400" fill="rgb(41, 62, 86)">新宿区</text><text x="842.421875" y="669.41875" font-family="sans-serif" font-size="10px" font-weight="400" fill="rgb(137, 149, 163)">西新宿2-3-4</text><text x="1058.75" y="658.02" font-family="sans-serif" font-size="11px" font-weight="400" fill="rgb(113, 129, 150)">2026/09/21</text><rect x="1229.21875" y="637" width="69" height="32.140625" rx="5" fill="none" stroke="rgb(215, 225, 237)" stroke-width="1"/><text x="1241.21875" y="658.02" font-family="sans-serif" font-size="11px" font-weight="400" fill="rgb(59, 96, 137)">詳細</text><svg x="1271.21875" y="645.5625" width="15" height="15" viewBox="0 0 24 24" fill="none" stroke="rgb(59, 96, 137)" stroke-width="1.7" stroke-linecap="round" stroke-linejoin="round"><path d="m9 5 7 7-7 7"></path></svg><rect x="305" y="719.703125" width="36" height="36" rx="7" fill="rgb(242, 239, 249)" stroke="none" stroke-width="0"/><svg x="313" y="727.703125" width="20" height="20" viewBox="0 0 24 24" fill="none" stroke="rgb(130, 112, 152)" stroke-width="1.7" stroke-linecap="round" stroke-linejoin="round"><path d="M4 21V3h12v18M16 9h4v12M2 21h20M8 7h4M8 11h4M8 15h4M8 21v-3h4v3"></path></svg><text x="353" y="732.730625" font-family="sans-serif" font-size="12px" font-weight="650" fill="rgb(45, 70, 102)">株式会社 みらい企画</text><text x="353" y="754.0675" font-family="sans-serif" font-size="9px" font-weight="400" fill="rgb(131, 145, 162)">法人番号 1234567890123</text><rect x="673.625" y="725.9375" width="55" height="22.5" rx="4" fill="rgb(241, 237, 248)" stroke="none" stroke-width="0"/><svg x="682.625" y="730.6875" width="13" height="13" viewBox="0 0 24 24" fill="none" stroke="rgb(121, 100, 147)" stroke-width="1.7" stroke-linecap="round" stroke-linejoin="round"><path d="M4 21V3h12v18M16 9h4v12M2 21h20M8 7h4M8 11h4M8 15h4M8 21v-3h4v3"></path></svg><text x="699.625" y="742.1375" font-family="sans-serif" font-size="10px" font-weight="400" fill="rgb(121, 100, 147)">法人</text><text x="842.421875" y="732.9025" font-family="sans-serif" font-size="12px" font-weight="400" fill="rgb(41, 62, 86)">東京都</text><text x="878.421875" y="732.9025" font-family="sans-serif" font-size="12px" font-weight="400" fill="rgb(41, 62, 86)">中央区</text><text x="842.421875" y="754.059375" font-family="sans-serif" font-size="10px" font-weight="400" fill="rgb(137, 149, 163)">日本橋1-2-3</text><text x="1058.75" y="742.660625" font-family="sans-serif" font-size="11px" font-weight="400" fill="rgb(113, 129, 150)">2026/09/21</text><rect x="1229.21875" y="721.640625" width="69" height="32.140625" rx="5" fill="none" stroke="rgb(215, 225, 237)" stroke-width="1"/><text x="1241.21875" y="742.660625" font-family="sans-serif" font-size="11px" font-weight="400" fill="rgb(59, 96, 137)">詳細</text><svg x="1271.21875" y="730.203125" width="15" height="15" viewBox="0 0 24 24" fill="none" stroke="rgb(59, 96, 137)" stroke-width="1.7" stroke-linecap="round" stroke-linejoin="round"><path d="m9 5 7 7-7 7"></path></svg><rect x="305" y="804.34375" width="36" height="36" rx="7" fill="rgb(239, 243, 248)" stroke="none" stroke-width="0"/><svg x="313" y="812.34375" width="20" height="20" viewBox="0 0 24 24" fill="none" stroke="rgb(98, 123, 147)" stroke-width="1.7" stroke-linecap="round" stroke-linejoin="round"><circle cx="12" cy="8" r="4"></circle><path d="M4 21v-2a8 8 0 0 1 16 0v2"></path></svg><text x="353" y="817.37125" font-family="sans-serif" font-size="12px" font-weight="650" fill="rgb(45, 70, 102)">山田 太郎</text><text x="353" y="838.708125" font-family="sans-serif" font-size="9px" font-weight="400" fill="rgb(131, 145, 162)">ヤマダ タロウ</text><rect x="673.625" y="810.578125" width="55" height="22.5" rx="4" fill="rgb(237, 244, 250)" stroke="none" stroke-width="0"/><svg x="682.625" y="815.328125" width="13" height="13" viewBox="0 0 24 24" fill="none" stroke="rgb(70, 110, 146)" stroke-width="1.7" stroke-linecap="round" stroke-linejoin="round"><circle cx="12" cy="8" r="4"></circle><path d="M4 21v-2a8 8 0 0 1 16 0v2"></path></svg><text x="699.625" y="826.778125" font-family="sans-serif" font-size="10px" font-weight="400" fill="rgb(70, 110, 146)">個人</text><text x="842.421875" y="817.543125" font-family="sans-serif" font-size="12px" font-weight="400" fill="rgb(41, 62, 86)">東京都</text><text x="878.421875" y="817.543125" font-family="sans-serif" font-size="12px" font-weight="400" fill="rgb(41, 62, 86)">千代田区</text><text x="842.421875" y="838.7" font-family="sans-serif" font-size="10px" font-weight="400" fill="rgb(137, 149, 163)">千代田1-1</text><text x="1058.75" y="827.30125" font-family="sans-serif" font-size="11px" font-weight="400" fill="rgb(113, 129, 150)">2026/09/21</text><rect x="1229.21875" y="806.28125" width="69" height="32.140625" rx="5" fill="none" stroke="rgb(215, 225, 237)" stroke-width="1"/><text x="1241.21875" y="827.30125" font-family="sans-serif" font-size="11px" font-weight="400" fill="rgb(59, 96, 137)">詳細</text><svg x="1271.21875" y="814.84375" width="15" height="15" viewBox="0 0 24 24" fill="none" stroke="rgb(59, 96, 137)" stroke-width="1.7" stroke-linecap="round" stroke-linejoin="round"><path d="m9 5 7 7-7 7"></path></svg><text x="306" y="901.621875" font-family="sans-serif" font-size="10px" font-weight="400" fill="rgb(122, 136, 152)">全 </text><text x="318.75" y="901.621875" font-family="sans-serif" font-size="10px" font-weight="400" fill="rgb(122, 136, 152)">3</text><text x="324.140625" y="901.621875" font-family="sans-serif" font-size="10px" font-weight="400" fill="rgb(122, 136, 152)"> 件</text><text x="336.890625" y="901.621875" font-family="sans-serif" font-size="10px" font-weight="400" fill="rgb(122, 136, 152)">中 1–3 件を表示</text><rect x="1269" y="882.171875" width="29" height="29" rx="4" fill="none" stroke="rgb(224, 230, 238)" stroke-width="1"/><text x="1281.90625" y="901.621875" font-family="sans-serif" font-size="10px" font-weight="400" fill="rgb(122, 136, 152)">‹</text><rect x="1306" y="882.171875" width="29" height="29" rx="4" fill="rgb(237, 243, 250)" stroke="rgb(196, 212, 232)" stroke-width="1"/><text x="1318.484375" y="901.621875" font-family="sans-serif" font-size="10px" font-weight="600" fill="rgb(49, 95, 148)">1</text><rect x="1343" y="882.171875" width="29" height="29" rx="4" fill="none" stroke="rgb(224, 230, 238)" stroke-width="1"/><text x="1355.90625" y="901.621875" font-family="sans-serif" font-size="10px" font-weight="400" fill="rgb(122, 136, 152)">›</text><rect x="280" y="952.171875" width="1118" height="104.09375" rx="7" fill="rgb(237, 243, 249)" stroke="rgb(220, 230, 240)" stroke-width="1"/><svg x="303" y="973.171875" width="20" height="20" viewBox="0 0 24 24" fill="none" stroke="rgb(88, 113, 142)" stroke-width="1.7" stroke-linecap="round" stroke-linejoin="round"><circle cx="12" cy="12" r="9"></circle><path d="M9 9a3 3 0 0 1 6 0c0 2-3 2-3 4M12 17h.01"></path></svg><text x="336" y="989.011875" font-family="sans-serif" font-size="12px" font-weight="600" fill="rgb(88, 113, 142)">申請者情報について</text><text x="336" y="1013.465625" font-family="sans-serif" font-size="10px" font-weight="400" fill="rgb(88, 113, 142)">個人で申請する場合はご本人の情報を、法人で申請する場合は法人情報と代表者情報を登録してください。</text><text x="336" y="1032.465625" font-family="sans-serif" font-size="10px" font-weight="400" fill="rgb(88, 113, 142)">登録した情報は、申請者の詳細画面からいつでも変更できます。</text><rect x="280" y="1103.265625" width="1118" height="57.5" rx="0" fill="none" stroke="rgb(222, 229, 237)" stroke-width="1"/><text x="280" y="1137.465625" font-family="sans-serif" font-size="10px" font-weight="400" fill="rgb(135, 148, 164)">行政手続きポータル </text><text x="370.90625" y="1136.645625" font-family="sans-serif" font-size="9px" font-weight="400" fill="rgb(135, 148, 164)">申請者管理</text><text x="1261.75" y="1137.465625" font-family="sans-serif" font-size="10px" font-weight="400" fill="rgb(135, 148, 164)">このサイトは開発用のサンプルです。</text></svg>