<svg xmlns="http://www.w3.org/2000/svg" width="1440" height="1207" viewBox="0 0 1440 1207"><rect width="1440" height="1207" fill="#f5f7fa"/><rect x="0" y="0" width="1440" height="1207.0625" rx="0" fill="rgb(245, 247, 250)" stroke="none" stroke-width="0"/><rect x="0" y="0" width="1440" height="28" rx="0" fill="rgb(234, 240, 246)" stroke="none" stroke-width="0"/><text x="574.25" y="19.02" font-family="sans-serif" font-size="11px" font-weight="400" fill="rgb(65, 85, 111)">開発用デモ環境 </text><text x="671.9375" y="19.02" font-family="sans-serif" font-size="11px" font-weight="400" fill="rgb(65, 85, 111)">実在する個人情報は入力しないでください</text><rect x="0" y="28" width="1440" height="88" rx="0" fill="rgb(255, 255, 255)" stroke="none" stroke-width="0"/><rect x="38" y="50" width="43" height="43" rx="9" fill="rgb(22, 60, 102)" stroke="none" stroke-width="0"/><svg x="46" y="58" width="27" height="27" viewBox="0 0 24 24" fill="none" stroke="rgb(255, 255, 255)" stroke-width="1.7" stroke-linecap="round" stroke-linejoin="round"><path d="M4 21V3h12v18M16 9h4v12M2 21h20M8 7h4M8 11h4M8 15h4M8 21v-3h4v3"></path></svg><text x="94" y="73.15" font-family="sans-serif" font-size="20px" font-weight="700" fill="rgb(22, 60, 102)">行政手続きポータル</text><text x="94" y="92.95" font-family="sans-serif" font-size="10px" font-weight="400" fill="rgb(113, 129, 151)">オンライン申請サービス</text><rect x="1234" y="52.5" width="38" height="38" rx="19" fill="rgb(239, 243, 248)" stroke="none" stroke-width="0"/><svg x="1243" y="61.5" width="20" height="20" viewBox="0 0 24 24" fill="none" stroke="rgb(22, 60, 102)" stroke-width="1.7" stroke-linecap="round" stroke-linejoin="round"><circle cx="12" cy="8" r="4"></circle><path d="M4 21v-2a8 8 0 0 1 16 0v2"></path></svg><text x="1284" y="63.45" font-family="sans-serif" font-size="10px" font-weight="400" fill="rgb(113, 129, 151)">デモ利用者の切り替え</text><rect x="1284" y="66.75" width="118" height="26" rx="6" fill="rgb(255, 255, 255)" stroke="none" stroke-width="0"/><text x="1284" y="84.65" font-family="sans-serif" font-size="14px" fill="rgb(41, 62, 86)">山田 太郎 様</text><rect x="0" y="116" width="238" height="1091.0625" rx="0" fill="rgb(255, 255, 255)" stroke="none" stroke-width="0"/><text x="32" y="162.02" font-family="sans-serif" font-size="11px" font-weight="400" fill="rgb(118, 132, 151)">マイページ</text><rect x="18" y="180.140625" width="201" height="49.09375" rx="6" fill="rgb(234, 241, 250)" stroke="none" stroke-width="0"/><svg x="33" y="194.6875" width="20" height="20" viewBox="0 0 24 24" fill="none" stroke="rgb(34, 86, 142)" stroke-width="1.7" stroke-linecap="round" stroke-linejoin="round"><path d="M16 21v-2a4 4 0 0 0-4-4H6a4 4 0 0 0-4 4v2"></path><circle cx="9" cy="7" r="4"></circle><path d="M22 21v-2a4 4 0 0 0-3-3.87M16 3.13a4 4 0 0 1 0 7.75"></path></svg><text x="65" y="211.620625" font-family="sans-serif" font-size="14px" font-weight="600" fill="rgb(34, 86, 142)">申請者管理</text><rect x="183.890625" y="195.609375" width="20.109375" height="18.140625" rx="4" fill="rgb(255, 255, 255)" stroke="none" stroke-width="0"/><text x="190.890625" y="209.629375" font-family="sans-serif" font-size="11px" font-weight="600" fill="rgb(34, 86, 142)">3</text><rect x="30" y="265.234375" width="177" height="137.671875" rx="0" fill="none" stroke="rgb(224, 230, 238)" stroke-width="1"/><svg x="30" y="292.234375" width="23" height="23" viewBox="0 0 24 24" fill="none" stroke="rgb(106, 131, 160)" stroke-width="1.7" stroke-linecap="round" stroke-linejoin="round"><path d="m12 3 8 3v6c0 5-8 9-8 9s-8-4-8-9V6Z"></path><path d="m8 12 3 3 5-6"></path></svg><text x="30" y="346.168125" font-family="sans-serif" font-size="12px" font-weight="700" fill="rgb(83, 105, 128)">申請の準備を、ここから。</text><text x="30" y="376.145" font-family="sans-serif" font-size="11px" font-weight="400" fill="rgb(113, 129, 151)">ご自身または代表する法人の情報を登</text><text x="30" y="397.035625" font-family="sans-serif" font-size="11px" font-weight="400" fill="rgb(113, 129, 151)">録して、手続きをスムーズに。</text><svg x="33" y="455.90625" width="20" height="20" viewBox="0 0 24 24" fill="none" stroke="rgb(113, 129, 151)" stroke-width="1.7" stroke-linecap="round" stroke-linejoin="round"><circle cx="12" cy="12" r="9"></circle><path d="M9 9a3 3 0 0 1 6 0c0 2-3 2-3 4M12 17h.01"></path></svg><text x="65" y="470.84" font-family="sans-serif" font-size="12px" font-weight="400" fill="rgb(113, 129, 151)">ご利用ガイド</text><text x="32" y="1152.4425" font-family="sans-serif" font-size="9px" font-weight="400" fill="rgb(139, 151, 166)">LOCAL DEMONSTRATION</text><text x="32" y="1170.4425" font-family="sans-serif" font-size="9px" font-weight="400" fill="rgb(139, 151, 166)">申請者管理サンプル v1.0</text><text x="280" y="157.02" font-family="sans-serif" font-size="11px" font-weight="400" fill="rgb(122, 135, 151)">マイページ</text><text x="331.1875" y="157.02" font-family="sans-serif" font-size="11px" font-weight="400" fill="rgb(160, 172, 184)">›</text><text x="344.671875" y="157.02" font-family="sans-serif" font-size="11px" font-weight="400" fill="rgb(122, 135, 151)">申請者管理</text><text x="409.671875" y="157.02" font-family="sans-serif" font-size="11px" font-weight="400" fill="rgb(160, 172, 184)">›</text><text x="423.15625" y="157.02" font-family="sans-serif" font-size="11px" font-weight="400" fill="rgb(122, 135, 151)">入力内容の確認</text><text x="280" y="199.520625" font-family="sans-serif" font-size="9px" font-weight="700" fill="rgb(130, 147, 168)">APPLICANT MANAGEMENT</text><text x="280" y="241.944375" font-family="sans-serif" font-size="28px" font-weight="700" fill="rgb(41, 62, 86)">入力内容の確認</text><text x="280" y="272.824375" font-family="sans-serif" font-size="12px" font-weight="400" fill="rgb(113, 129, 151)">以下の内容をご確認のうえ、登録を完了してください。</text><rect x="280" y="305.78125" width="1118" height="62" rx="8" fill="rgb(236, 241, 247)" stroke="none" stroke-width="0"/><rect x="305" y="323.78125" width="26" height="26" rx="13" fill="rgb(223, 230, 238)" stroke="none" stroke-width="0"/><text x="312" y="341.715" font-family="sans-serif" font-size="12px" font-weight="700" fill="rgb(131, 145, 161)">✓</text><text x="341" y="341.715" font-family="sans-serif" font-size="12px" font-weight="400" fill="rgb(131, 145, 161)">情報の入力</text><rect x="434.796875" y="323.78125" width="26" height="26" rx="13" fill="rgb(40, 94, 153)" stroke="none" stroke-width="0"/><text x="444.453125" y="341.715" font-family="sans-serif" font-size="12px" font-weight="900" fill="rgb(255, 255, 255)">2</text><text x="470.796875" y="341.715" font-family="sans-serif" font-size="12px" font-weight="600" fill="rgb(40, 94, 153)">内容の確認</text><rect x="564.828125" y="323.78125" width="26" height="26" rx="13" fill="rgb(223, 230, 238)" stroke="none" stroke-width="0"/><text x="574.484375" y="341.715" font-family="sans-serif" font-size="12px" font-weight="700" fill="rgb(131, 145, 161)">3</text><text x="600.828125" y="341.715" font-family="sans-serif" font-size="12px" font-weight="400" fill="rgb(131, 145, 161)">登録完了</text><rect x="280" y="391.78125" width="1118" height="567.34375" rx="9" fill="rgb(255, 255, 255)" stroke="rgb(224, 230, 238)" stroke-width="1"/><text x="311" y="440.72125" font-family="sans-serif" font-size="17px" font-weight="700" fill="rgb(41, 62, 86)">基本情報</text><text x="311" y="492.488125" font-family="sans-serif" font-size="13px" font-weight="400" fill="rgb(113, 129, 151)">申請者区分</text><rect x="481" y="475.828125" width="55" height="22.5" rx="4" fill="rgb(237, 244, 250)" stroke="none" stroke-width="0"/><svg x="490" y="480.578125" width="13" height="13" viewBox="0 0 24 24" fill="none" stroke="rgb(70, 110, 146)" stroke-width="1.7" stroke-linecap="round" stroke-linejoin="round"><circle cx="12" cy="8" r="4"></circle><path d="M4 21v-2a8 8 0 0 1 16 0v2"></path></svg><text x="507" y="492.028125" font-family="sans-serif" font-size="10px" font-weight="400" fill="rgb(70, 110, 146)">個人</text><text x="311" y="544.675625" font-family="sans-serif" font-size="13px" font-weight="400" fill="rgb(113, 129, 151)">氏名</text><text x="481" y="544.675625" font-family="sans-serif" font-size="13px" font-weight="400" fill="rgb(41, 62, 86)">山田 太郎</text><text x="311" y="595.113125" font-family="sans-serif" font-size="13px" font-weight="400" fill="rgb(113, 129, 151)">フリガナ</text><text x="481" y="595.113125" font-family="sans-serif" font-size="13px" font-weight="400" fill="rgb(41, 62, 86)">ヤマダ タロウ</text><rect x="281" y="639.890625" width="1116" height="318.234375" rx="0" fill="none" stroke="rgb(224, 230, 238)" stroke-width="1"/><text x="311" y="688.830625" font-family="sans-serif" font-size="17px" font-weight="700" fill="rgb(41, 62, 86)">住所・連絡先</text><text x="311" y="740.5975" font-family="sans-serif" font-size="13px" font-weight="400" fill="rgb(113, 129, 151)">郵便番号</text><text x="481" y="740.5975" font-family="sans-serif" font-size="13px" font-weight="400" fill="rgb(41, 62, 86)">〒 </text><text x="497.5625" y="740.5975" font-family="sans-serif" font-size="13px" font-weight="400" fill="rgb(41, 62, 86)">100-0001</text><text x="311" y="791.035" font-family="sans-serif" font-size="13px" font-weight="400" fill="rgb(113, 129, 151)">住所</text><text x="481" y="791.035" font-family="sans-serif" font-size="13px" font-weight="400" fill="rgb(41, 62, 86)">東京都</text><text x="520" y="791.035" font-family="sans-serif" font-size="13px" font-weight="400" fill="rgb(41, 62, 86)">千代田区</text><text x="572" y="791.035" font-family="sans-serif" font-size="13px" font-weight="400" fill="rgb(41, 62, 86)">千代田1-1</text><text x="481" y="812.4725" font-family="sans-serif" font-size="13px" font-weight="400" fill="rgb(41, 62, 86)">サンプルハイツ 101</text><text x="311" y="862.91" font-family="sans-serif" font-size="13px" font-weight="400" fill="rgb(113, 129, 151)">メールアドレス</text><text x="481" y="862.91" font-family="sans-serif" font-size="13px" font-weight="400" fill="rgb(41, 62, 86)">sample@example.test</text><text x="311" y="913.3475" font-family="sans-serif" font-size="13px" font-weight="400" fill="rgb(113, 129, 151)">電話番号</text><text x="481" y="913.3475" font-family="sans-serif" font-size="13px" font-weight="400" fill="rgb(41, 62, 86)">03-1234-5678</text><rect x="289" y="987.125" width="18" height="18" rx="0" fill="rgb(255, 255, 255)" stroke="none" stroke-width="0"/><circle cx="298" cy="996.125" r="7" fill="#ffffff" stroke="#b8c6d5"/><text x="320" y="1001.05875" font-family="sans-serif" font-size="12px" font-weight="400" fill="rgb(41, 62, 86)">入力内容を確認し、自身または代表する法人の情報であることを確認しました。</text><rect x="280" y="1057.125" width="130.0625" height="45.4375" rx="6" fill="rgb(255, 255, 255)" stroke="rgb(203, 212, 223)" stroke-width="1"/><text x="301" y="1085.785" font-family="sans-serif" font-size="13px" font-weight="600" fill="rgb(41, 62, 86)">入力内容を修正</text><rect x="1275.765625" y="1057.84375" width="122.234375" height="44" rx="6" fill="rgb(40, 94, 153)" stroke="none" stroke-width="0"/><text x="1295.765625" y="1085.785" font-family="sans-serif" font-size="13px" font-weight="600" fill="rgb(255, 255, 255)">この内容で更新</text><rect x="280" y="1149.5625" width="1118" height="57.5" rx="0" fill="none" stroke="rgb(222, 229, 237)" stroke-width="1"/><text x="280" y="1183.7625" font-family="sans-serif" font-size="10px" font-weight="400" fill="rgb(135, 148, 164)">行政手続きポータル </text><text x="370.90625" y="1182.9425" font-family="sans-serif" font-size="9px" font-weight="400" fill="rgb(135, 148, 164)">申請者管理</text><text x="1261.75" y="1183.7625" font-family="sans-serif" font-size="10px" font-weight="400" fill="rgb(135, 148, 164)">このサイトは開発用のサンプルです。</text></svg>